<?xml version="1.0" encoding="UTF-8"?>
<svg id="Layer_2" data-name="Layer 2" xmlns="http://www.w3.org/2000/svg" viewBox="0 0 424.6 578.71">
  <defs>
    <style>
      .cls-1 {
        fill: #47403a;
      }

      .cls-2, .cls-3, .cls-4, .cls-5 {
        stroke-miterlimit: 10;
      }

      .cls-2, .cls-4 {
        fill: none;
        stroke: #fff;
        stroke-width: 5px;
      }

      .cls-6 {
        fill: #241b18;
      }

      .cls-3 {
        stroke-width: 2px;
      }

      .cls-3, .cls-4 {
        stroke-linecap: round;
      }

      .cls-3, .cls-5 {
        fill: #85786c;
        stroke: #302b27;
      }

      .cls-7 {
        fill: #5c534b;
      }

      .cls-8 {
        fill: #302b27;
      }
    </style>
  </defs>
  <g id="Layer_81" data-name="Layer 81">
    <path class="cls-7" d="M421.6,0H3C1.34,0,0,1.34,0,3v572.71c0,1.66,1.34,3,3,3h418.6c1.66,0,3-1.34,3-3V3C424.6,1.34,423.25,0,421.6,0ZM372.52,484.1c-106.87,2.88-213.74,2.81-320.62-.24-11.29-130-10.73-260.01,1.68-390.01,105.78-3.35,211.56-3.43,317.34-.26,11.77,130.17,12.3,260.34,1.59,390.51Z"/>
    <path class="cls-8" d="M404.47,74.7H20.13c-1.66,0-3,1.34-3,3v423.31c0,1.66,1.34,3,3,3h384.33c1.66,0,3-1.34,3-3V77.7c0-1.66-1.34-3-3-3ZM372.52,484.1c-106.87,2.88-213.74,2.81-320.62-.24-11.29-130-10.73-260.01,1.68-390.01,105.78-3.35,211.56-3.43,317.34-.26,11.77,130.17,12.3,260.34,1.59,390.51Z"/>
    <path class="cls-6" d="M370.93,93.6s0,.05,0,.08l36.53-15.97c0-1.66-1.34-3-3-3H20.13c-1.66,0-3,1.34-3,3l36.91,16.14c105.63-3.33,211.26-3.42,316.89-.25Z"/>
    <path class="cls-1" d="M372.3,484.11c-106.51,2.87-213.03,2.8-319.54-.22l-35.63,16.83c0,1.82,1.34,3.29,3,3.29h384.33c1.66,0,3-1.47,3-3.29l-35.16-16.61Z"/>
    <g id="Layer_80" data-name="Layer 80">
      <path class="cls-7" d="M424.6,73.05H0V3C0,1.34,1.34,0,3,0h418.6c1.66,0,3,1.34,3,3v70.05Z"/>
      <path class="cls-7" d="M421.6,578.71H3c-1.66,0-3-1.34-3-3v-70.05h424.6v70.05c0,1.66-1.34,3-3,3Z"/>
      <line class="cls-2" x1="67.2" y1="61.69" x2="67.2" y2="73.05"/>
      <rect class="cls-6" x="340.99" y="16.83" width="32.82" height="44.86" rx="7.82" ry="7.82"/>
      <rect class="cls-8" x="340.99" y="13.51" width="32.82" height="44.86" rx="7.82" ry="7.82"/>
      <line class="cls-4" x1="357.4" y1="27.24" x2="357.4" y2="44.65"/>
      <rect class="cls-6" x="282.95" y="16.58" width="32.82" height="44.86" rx="7.82" ry="7.82"/>
      <rect class="cls-8" x="282.95" y="13.27" width="32.82" height="44.86" rx="7.82" ry="7.82"/>
      <line class="cls-4" x1="299.36" y1="26.99" x2="299.36" y2="44.4"/>
      <rect class="cls-6" x="224.91" y="16.83" width="32.82" height="44.86" rx="7.82" ry="7.82"/>
      <rect class="cls-8" x="224.91" y="13.51" width="32.82" height="44.86" rx="7.82" ry="7.82"/>
      <line class="cls-4" x1="241.32" y1="27.24" x2="241.32" y2="44.65"/>
      <rect class="cls-6" x="166.87" y="16.83" width="32.82" height="44.86" rx="7.82" ry="7.82"/>
      <rect class="cls-8" x="166.87" y="13.51" width="32.82" height="44.86" rx="7.82" ry="7.82"/>
      <line class="cls-4" x1="183.28" y1="27.24" x2="183.28" y2="44.65"/>
      <rect class="cls-6" x="108.83" y="16.83" width="32.82" height="44.86" rx="7.82" ry="7.82"/>
      <rect class="cls-8" x="108.83" y="13.51" width="32.82" height="44.86" rx="7.82" ry="7.82"/>
      <line class="cls-4" x1="125.24" y1="27.24" x2="125.24" y2="44.65"/>
      <rect class="cls-6" x="50.79" y="16.83" width="32.82" height="44.86" rx="7.82" ry="7.82"/>
      <rect class="cls-8" x="50.79" y="13.51" width="32.82" height="44.86" rx="7.82" ry="7.82"/>
      <line class="cls-4" x1="67.2" y1="27.24" x2="67.2" y2="44.65"/>
      <rect class="cls-6" x="340.99" y="520.84" width="32.82" height="44.86" rx="7.82" ry="7.82"/>
      <rect class="cls-8" x="340.99" y="517.52" width="32.82" height="44.86" rx="7.82" ry="7.82"/>
      <line class="cls-4" x1="357.4" y1="531.25" x2="357.4" y2="548.66"/>
      <rect class="cls-6" x="282.95" y="520.84" width="32.82" height="44.86" rx="7.82" ry="7.82"/>
      <rect class="cls-8" x="282.95" y="517.52" width="32.82" height="44.86" rx="7.82" ry="7.82"/>
      <line class="cls-4" x1="299.36" y1="531.25" x2="299.36" y2="548.66"/>
      <rect class="cls-6" x="225.14" y="520.82" width="32.82" height="44.86" rx="7.82" ry="7.82"/>
      <rect class="cls-8" x="225.14" y="517.51" width="32.82" height="44.86" rx="7.82" ry="7.82"/>
      <line class="cls-4" x1="241.55" y1="531.23" x2="241.55" y2="548.64"/>
      <rect class="cls-6" x="166.87" y="520.84" width="32.82" height="44.86" rx="7.82" ry="7.82"/>
      <rect class="cls-8" x="166.87" y="517.52" width="32.82" height="44.86" rx="7.82" ry="7.82"/>
      <line class="cls-4" x1="183.28" y1="531.25" x2="183.28" y2="548.66"/>
      <rect class="cls-6" x="108.83" y="520.84" width="32.82" height="44.86" rx="7.82" ry="7.82"/>
      <rect class="cls-8" x="108.83" y="517.52" width="32.82" height="44.86" rx="7.82" ry="7.82"/>
      <line class="cls-4" x1="125.24" y1="531.25" x2="125.24" y2="548.66"/>
      <rect class="cls-6" x="50.79" y="520.84" width="32.82" height="44.86" rx="7.82" ry="7.82"/>
      <rect class="cls-8" x="50.79" y="517.52" width="32.82" height="44.86" rx="7.82" ry="7.82"/>
      <line class="cls-4" x1="67.2" y1="531.25" x2="67.2" y2="548.66"/>
      <line class="cls-2" x1="125.24" y1="61.69" x2="125.24" y2="73.05"/>
      <line class="cls-2" x1="183.28" y1="61.69" x2="183.28" y2="73.05"/>
      <line class="cls-2" x1="241.32" y1="61.69" x2="241.32" y2="73.05"/>
      <line class="cls-2" x1="299.36" y1="61.69" x2="299.36" y2="73.05"/>
      <line class="cls-2" x1="357.4" y1="61.69" x2="357.4" y2="73.05"/>
      <line class="cls-2" x1="67.2" y1="505.67" x2="67.2" y2="517.02"/>
      <line class="cls-2" x1="125.24" y1="505.67" x2="125.24" y2="517.02"/>
      <line class="cls-2" x1="183.28" y1="505.67" x2="183.28" y2="517.02"/>
      <line class="cls-2" x1="241.32" y1="505.67" x2="241.32" y2="517.02"/>
      <line class="cls-2" x1="299.36" y1="505.67" x2="299.36" y2="517.02"/>
      <line class="cls-2" x1="357.4" y1="505.67" x2="357.4" y2="517.02"/>
      <circle class="cls-5" cx="17.13" cy="16.83" r="10.82"/>
      <line class="cls-3" x1="12.32" y1="16.83" x2="22.26" y2="16.83"/>
      <line class="cls-3" x1="17.13" y1="11.86" x2="17.13" y2="21.8"/>
      <circle class="cls-5" cx="17.13" cy="562.38" r="10.82"/>
      <line class="cls-3" x1="12.32" y1="562.38" x2="22.26" y2="562.38"/>
      <line class="cls-3" x1="17.13" y1="557.42" x2="17.13" y2="567.35"/>
      <circle class="cls-5" cx="407.47" cy="16.83" r="10.82"/>
      <line class="cls-3" x1="402.65" y1="16.83" x2="412.59" y2="16.83"/>
      <line class="cls-3" x1="407.47" y1="11.86" x2="407.47" y2="21.8"/>
      <circle class="cls-5" cx="407.62" cy="562.37" r="10.82"/>
      <line class="cls-3" x1="402.81" y1="562.37" x2="412.74" y2="562.37"/>
      <line class="cls-3" x1="407.62" y1="557.4" x2="407.62" y2="567.33"/>
    </g>
  </g>
</svg>